# xmcd CD database file
#
# Track frame offsets:
#	150
#	11162
#	26492
#	46000
#	73821
#	87107
#	102484
#	119677
#	136999
#	155466
#	173149
#	191007
#	204514
#
# Disc length: 2855 seconds
#
# Revision: 0
# Processed by: cddbd v1.5.2PL0 Copyright (c) Steve Scherf et al.
# Submitted via: CDex 1.70beta2
#
DISCID=b10b250d
DTITLE=Dave Harris - Going to Chicago
DYEAR=2006
DGENRE=Blues
TTITLE0=Slim's Zydeco Train - Dave Harris
TTITLE1=Playing to the Wall - Dave Harris
TTITLE2=Crowded at the Bottom - Dave Harris
TTITLE3=Going to Chicago/ Fiddle Boogie - Dave Harris
TTITLE4=I'm a Lover, Not a Fighter - Leslie (Lazy Lester) Johnson
TTITLE5=Can't Hold on Much Longer - Little Walter Jacobs
TTITLE6=Just Your Fool - Little Walter Jacobs
TTITLE7=I'm Leavin' - Dave Harris
TTITLE8=I Never Felt Like This Before - Dave Harris
TTITLE9=Sloppy Drunk - Leroy Carr
TTITLE10=Mean Old World - Little Walter Jacobs
TTITLE11=It Feels so Good - Dave Harris
TTITLE12=Good News Zydeco - Dave Harris
EXTD=YEAR: 2006
EXTT0=
EXTT1=
EXTT2=
EXTT3=
EXTT4=
EXTT5=
EXTT6=
EXTT7=
EXTT8=
EXTT9=
EXTT10=
EXTT11=
EXTT12=
PLAYORDER=
